<svg viewBox="0 0 900.0 1070.0" xmlns="http://www.w3.org/2000/svg" font-family="sans-serif" role="img">
<title>dec-fr-bordeaux — medium floor (369 m² footprint) — 38 fixtures, 0 overlaps</title>
<rect x="0" y="0" width="900.0" height="1025.0" fill="#f8fafc" stroke="#1e293b" stroke-width="2"/>
<rect x="225.0" y="875.0" width="225.0" height="150.0" fill="#dcfce7" fill-opacity="0.5" stroke="#cbd5e1" stroke-width="1"/>
<text x="228.0" y="886.0" font-size="8" fill="#475569">Z-01</text>
<rect x="525.0" y="825.0" width="375.0" height="200.0" fill="#e2e8f0" fill-opacity="0.5" stroke="#cbd5e1" stroke-width="1"/>
<text x="528.0" y="836.0" font-size="8" fill="#475569">Z-02</text>
<rect x="0.0" y="150.0" width="150.0" height="725.0" fill="#ffffff" fill-opacity="0.5" stroke="#cbd5e1" stroke-width="1"/>
<text x="3.0" y="161.0" font-size="8" fill="#475569">Z-03</text>
<rect x="150.0" y="450.0" width="375.0" height="425.0" fill="#ffffff" fill-opacity="0.5" stroke="#cbd5e1" stroke-width="1"/>
<text x="153.0" y="461.0" font-size="8" fill="#475569">Z-04</text>
<rect x="0.0" y="0.0" width="900.0" height="150.0" fill="#ffffff" fill-opacity="0.5" stroke="#cbd5e1" stroke-width="1"/>
<text x="3.0" y="11.0" font-size="8" fill="#475569">Z-05</text>
<rect x="525.0" y="450.0" width="375.0" height="375.0" fill="#ffffff" fill-opacity="0.5" stroke="#cbd5e1" stroke-width="1"/>
<text x="528.0" y="461.0" font-size="8" fill="#475569">Z-11</text>
<rect x="525.0" y="150.0" width="375.0" height="300.0" fill="#fef3c7" fill-opacity="0.5" stroke="#cbd5e1" stroke-width="1"/>
<text x="528.0" y="161.0" font-size="8" fill="#475569">Z-10</text>
<rect x="150.0" y="150.0" width="127.5" height="300.0" fill="#ffffff" fill-opacity="0.5" stroke="#cbd5e1" stroke-width="1"/>
<text x="153.0" y="161.0" font-size="8" fill="#475569">Z-06</text>
<rect x="277.5" y="150.0" width="75.0" height="300.0" fill="#ffffff" fill-opacity="0.5" stroke="#cbd5e1" stroke-width="1"/>
<text x="280.5" y="161.0" font-size="8" fill="#475569">Z-07</text>
<rect x="352.5" y="150.0" width="86.2" height="300.0" fill="#fef3c7" fill-opacity="0.5" stroke="#cbd5e1" stroke-width="1"/>
<text x="355.5" y="161.0" font-size="8" fill="#475569">Z-09</text>
<rect x="438.8" y="150.0" width="86.2" height="300.0" fill="#fef3c7" fill-opacity="0.5" stroke="#cbd5e1" stroke-width="1"/>
<text x="441.8" y="161.0" font-size="8" fill="#475569">Z-08</text>
<rect x="223.3" y="783.8" width="100.0" height="30.0" fill="#2563eb" fill-opacity="0.72" stroke="#1e293b" stroke-width="0.4"/>
<rect x="223.3" y="753.8" width="100.0" height="30.0" fill="#3b82f6" fill-opacity="0.72" stroke="#1e293b" stroke-width="0.4"/>
<rect x="351.7" y="783.8" width="100.0" height="30.0" fill="#2563eb" fill-opacity="0.72" stroke="#1e293b" stroke-width="0.4"/>
<rect x="351.7" y="753.8" width="100.0" height="30.0" fill="#3b82f6" fill-opacity="0.72" stroke="#1e293b" stroke-width="0.4"/>
<rect x="223.3" y="662.5" width="100.0" height="30.0" fill="#2563eb" fill-opacity="0.72" stroke="#1e293b" stroke-width="0.4"/>
<rect x="223.3" y="632.5" width="100.0" height="30.0" fill="#3b82f6" fill-opacity="0.72" stroke="#1e293b" stroke-width="0.4"/>
<rect x="351.7" y="662.5" width="100.0" height="30.0" fill="#2563eb" fill-opacity="0.72" stroke="#1e293b" stroke-width="0.4"/>
<rect x="351.7" y="632.5" width="100.0" height="30.0" fill="#3b82f6" fill-opacity="0.72" stroke="#1e293b" stroke-width="0.4"/>
<rect x="223.3" y="541.2" width="100.0" height="30.0" fill="#2563eb" fill-opacity="0.72" stroke="#1e293b" stroke-width="0.4"/>
<rect x="223.3" y="511.2" width="100.0" height="30.0" fill="#3b82f6" fill-opacity="0.72" stroke="#1e293b" stroke-width="0.4"/>
<rect x="351.7" y="541.2" width="100.0" height="30.0" fill="#2563eb" fill-opacity="0.72" stroke="#1e293b" stroke-width="0.4"/>
<rect x="351.7" y="511.2" width="100.0" height="30.0" fill="#3b82f6" fill-opacity="0.72" stroke="#1e293b" stroke-width="0.4"/>
<rect x="160.0" y="736.7" width="5.0" height="128.3" fill="#7c3aed" fill-opacity="0.72" stroke="#1e293b" stroke-width="0.4"/>
<rect x="160.0" y="598.4" width="5.0" height="128.3" fill="#7c3aed" fill-opacity="0.72" stroke="#1e293b" stroke-width="0.4"/>
<rect x="160.0" y="460.1" width="5.0" height="128.3" fill="#7c3aed" fill-opacity="0.72" stroke="#1e293b" stroke-width="0.4"/>
<rect x="510.0" y="736.7" width="5.0" height="128.3" fill="#7c3aed" fill-opacity="0.72" stroke="#1e293b" stroke-width="0.4"/>
<rect x="510.0" y="598.4" width="5.0" height="128.3" fill="#7c3aed" fill-opacity="0.72" stroke="#1e293b" stroke-width="0.4"/>
<rect x="510.0" y="460.1" width="5.0" height="128.3" fill="#7c3aed" fill-opacity="0.72" stroke="#1e293b" stroke-width="0.4"/>
<rect x="160.0" y="353.4" width="48.8" height="86.7" fill="#dc2626" fill-opacity="0.72" stroke="#1e293b" stroke-width="0.4"/>
<rect x="218.8" y="353.4" width="48.8" height="86.7" fill="#dc2626" fill-opacity="0.72" stroke="#1e293b" stroke-width="0.4"/>
<rect x="160.0" y="256.7" width="48.8" height="86.7" fill="#dc2626" fill-opacity="0.72" stroke="#1e293b" stroke-width="0.4"/>
<rect x="218.8" y="256.7" width="48.8" height="86.7" fill="#dc2626" fill-opacity="0.72" stroke="#1e293b" stroke-width="0.4"/>
<rect x="160.0" y="160.0" width="48.8" height="86.7" fill="#dc2626" fill-opacity="0.72" stroke="#1e293b" stroke-width="0.4"/>
<rect x="218.8" y="160.0" width="48.8" height="86.7" fill="#dc2626" fill-opacity="0.72" stroke="#1e293b" stroke-width="0.4"/>
<rect x="287.5" y="353.4" width="55.0" height="86.7" fill="#f59e0b" fill-opacity="0.72" stroke="#1e293b" stroke-width="0.4"/>
<rect x="287.5" y="256.7" width="55.0" height="86.7" fill="#f59e0b" fill-opacity="0.72" stroke="#1e293b" stroke-width="0.4"/>
<rect x="287.5" y="160.0" width="55.0" height="86.7" fill="#f59e0b" fill-opacity="0.72" stroke="#1e293b" stroke-width="0.4"/>
<rect x="362.5" y="160.0" width="28.1" height="280.0" fill="#14b8a6" fill-opacity="0.72" stroke="#1e293b" stroke-width="0.4"/>
<rect x="400.6" y="160.0" width="28.2" height="280.0" fill="#14b8a6" fill-opacity="0.72" stroke="#1e293b" stroke-width="0.4"/>
<rect x="448.8" y="160.0" width="66.2" height="280.0" fill="#10b981" fill-opacity="0.72" stroke="#1e293b" stroke-width="0.4"/>
<rect x="535.0" y="305.0" width="172.5" height="135.0" fill="#ec4899" fill-opacity="0.72" stroke="#1e293b" stroke-width="0.4"/>
<rect x="717.5" y="305.0" width="172.5" height="135.0" fill="#ec4899" fill-opacity="0.72" stroke="#1e293b" stroke-width="0.4"/>
<rect x="535.0" y="160.0" width="172.5" height="135.0" fill="#ec4899" fill-opacity="0.72" stroke="#1e293b" stroke-width="0.4"/>
<rect x="717.5" y="160.0" width="172.5" height="135.0" fill="#ec4899" fill-opacity="0.72" stroke="#1e293b" stroke-width="0.4"/>
<rect x="535.0" y="835.0" width="172.5" height="140.0" fill="#64748b" fill-opacity="0.72" stroke="#1e293b" stroke-width="0.4"/>
<rect x="717.5" y="835.0" width="172.5" height="140.0" fill="#64748b" fill-opacity="0.72" stroke="#1e293b" stroke-width="0.4"/>
<rect x="532.5" y="992.5" width="360.0" height="25.0" fill="#94a3b8" fill-opacity="0.72" stroke="#1e293b" stroke-width="0.4"/>
<circle cx="337.5" cy="935.0" r="35.0" fill="#fb923c" fill-opacity="0.8" stroke="#1e293b" stroke-width="0.4"/>
<text x="6" y="1041.0" font-size="11" fill="#0f172a">dec-fr-bordeaux · medium · 18000×20500mm · 3×2 gondolas · 49 zones · 0 overlaps</text>
<text x="6" y="1057.0" font-size="9" fill="#64748b">blue=gondolas · purple=walls · red=GPS · amber=accessories · teal/green=gait+bench · pink=fitting · grey=checkout · entrance=bottom</text>
</svg>