<svg xmlns="http://www.w3.org/2000/svg" width="1080" height="830" font-family="Inter,Arial,sans-serif">
<rect width="1080" height="830" fill="#1a1a2e"/>
<rect x="40" y="40" width="1000" height="750" fill="#2a2a3e" stroke="#555" stroke-width="2"/>
<rect x="240.0" y="665.0" width="600.0" height="125.0" fill="#e8f5e9" fill-opacity="0.18" stroke="#e8f5e9" stroke-opacity="0.6" stroke-width="1.5"/>
<text x="540.0" y="727.5" text-anchor="middle" dominant-baseline="middle" font-size="8" fill="#e8f5e9" fill-opacity="0.9">Entrance</text>
<rect x="40.0" y="315.0" width="500.0" height="350.0" fill="#e3f2fd" fill-opacity="0.18" stroke="#e3f2fd" stroke-opacity="0.6" stroke-width="1.5"/>
<text x="290.0" y="490.0" text-anchor="middle" dominant-baseline="middle" font-size="8" fill="#e3f2fd" fill-opacity="0.9">Apparel</text>
<rect x="540.0" y="315.0" width="500.0" height="350.0" fill="#fff3e0" fill-opacity="0.18" stroke="#fff3e0" stroke-opacity="0.6" stroke-width="1.5"/>
<text x="790.0" y="490.0" text-anchor="middle" dominant-baseline="middle" font-size="8" fill="#fff3e0" fill-opacity="0.9">Footwear</text>
<rect x="565.0" y="340.0" width="425.0" height="150.0" fill="#ffe0b2" fill-opacity="0.18" stroke="#ffe0b2" stroke-opacity="0.6" stroke-width="1.5"/>
<text x="777.5" y="415.0" text-anchor="middle" dominant-baseline="middle" font-size="8" fill="#ffe0b2" fill-opacity="0.9">Footwear Bench</text>
<rect x="40.0" y="115.0" width="400.0" height="200.0" fill="#f3e5f5" fill-opacity="0.18" stroke="#f3e5f5" stroke-opacity="0.6" stroke-width="1.5"/>
<text x="240.0" y="215.0" text-anchor="middle" dominant-baseline="middle" font-size="8" fill="#f3e5f5" fill-opacity="0.9">GPS & Access.</text>
<rect x="440.0" y="115.0" width="300.0" height="200.0" fill="#e8eaf6" fill-opacity="0.18" stroke="#e8eaf6" stroke-opacity="0.6" stroke-width="1.5"/>
<text x="590.0" y="215.0" text-anchor="middle" dominant-baseline="middle" font-size="8" fill="#e8eaf6" fill-opacity="0.9">Gait Analysis</text>
<rect x="740.0" y="115.0" width="300.0" height="200.0" fill="#fce4ec" fill-opacity="0.18" stroke="#fce4ec" stroke-opacity="0.6" stroke-width="1.5"/>
<text x="890.0" y="215.0" text-anchor="middle" dominant-baseline="middle" font-size="8" fill="#fce4ec" fill-opacity="0.9">Fitting Rooms</text>
<rect x="740.0" y="665.0" width="300.0" height="125.0" fill="#e0f2f1" fill-opacity="0.18" stroke="#e0f2f1" stroke-opacity="0.6" stroke-width="1.5"/>
<text x="890.0" y="727.5" text-anchor="middle" dominant-baseline="middle" font-size="8" fill="#e0f2f1" fill-opacity="0.9">Checkout</text>
<rect x="40.0" y="40.0" width="1000.0" height="75.0" fill="#efebe9" fill-opacity="0.18" stroke="#efebe9" stroke-opacity="0.6" stroke-width="1.5"/>
<text x="540.0" y="77.5" text-anchor="middle" dominant-baseline="middle" font-size="8" fill="#efebe9" fill-opacity="0.9">Stockroom</text>
<rect x="90.0" y="340.0" width="75.0" height="300.0" fill="#90caf9" fill-opacity="0.5" rx="1"/>
<rect x="240.0" y="340.0" width="75.0" height="300.0" fill="#90caf9" fill-opacity="0.5" rx="1"/>
<rect x="390.0" y="340.0" width="75.0" height="300.0" fill="#90caf9" fill-opacity="0.5" rx="1"/>
<rect x="40.0" y="315.0" width="40.0" height="350.0" fill="#64b5f6" fill-opacity="0.5" rx="1"/>
<rect x="565.0" y="565.0" width="125.0" height="75.0" fill="#ffcc80" fill-opacity="0.5" rx="1"/>
<rect x="740.0" y="565.0" width="125.0" height="75.0" fill="#ffcc80" fill-opacity="0.5" rx="1"/>
<rect x="890.0" y="565.0" width="125.0" height="75.0" fill="#ffcc80" fill-opacity="0.5" rx="1"/>
<rect x="565.0" y="490.0" width="125.0" height="50.0" fill="#ffb74d" fill-opacity="0.5" rx="1"/>
<rect x="740.0" y="490.0" width="125.0" height="50.0" fill="#ffb74d" fill-opacity="0.5" rx="1"/>
<rect x="1000.0" y="315.0" width="40.0" height="350.0" fill="#ff9800" fill-opacity="0.5" rx="1"/>
<rect x="565.0" y="365.0" width="425.0" height="100.0" fill="#ffe0b2" fill-opacity="0.5" rx="1"/>
<rect x="65.0" y="215.0" width="150.0" height="75.0" fill="#ce93d8" fill-opacity="0.5" rx="1"/>
<rect x="65.0" y="140.0" width="150.0" height="50.0" fill="#ce93d8" fill-opacity="0.5" rx="1"/>
<rect x="240.0" y="115.0" width="175.0" height="200.0" fill="#ba68c8" fill-opacity="0.5" rx="1"/>
<rect x="465.0" y="140.0" width="100.0" height="150.0" fill="#9fa8da" fill-opacity="0.5" rx="1"/>
<rect x="590.0" y="140.0" width="100.0" height="150.0" fill="#9fa8da" fill-opacity="0.5" rx="1"/>
<rect x="740.0" y="165.0" width="100.0" height="125.0" fill="#f48fb1" fill-opacity="0.5" rx="1"/>
<rect x="865.0" y="165.0" width="100.0" height="125.0" fill="#f48fb1" fill-opacity="0.5" rx="1"/>
<rect x="740.0" y="115.0" width="100.0" height="50.0" fill="#f48fb1" fill-opacity="0.5" rx="1"/>
<rect x="890.0" y="115.0" width="125.0" height="50.0" fill="#ef9a9a" fill-opacity="0.5" rx="1"/>
<rect x="765.0" y="690.0" width="125.0" height="75.0" fill="#80cbc4" fill-opacity="0.5" rx="1"/>
<rect x="915.0" y="690.0" width="100.0" height="75.0" fill="#80cbc4" fill-opacity="0.5" rx="1"/>
<rect x="740.0" y="665.0" width="300.0" height="25.0" fill="#4db6ac" fill-opacity="0.5" rx="1"/>
<line x1="415.0" y1="750.0" x2="665.0" y2="750.0" stroke="#f44336" stroke-width="2" stroke-dasharray="4,3"/>
<text x="540.0" y="744.0" text-anchor="middle" font-size="7" fill="#f44336">EAS GATE</text>
<text x="46" y="54" font-size="9" fill="#aaa">N↑</text>
<text x="46" y="784" font-size="8" fill="#666">0</text>
<text x="1020" y="784" font-size="8" fill="#666">20m</text>
<line x1="40" y1="790" x2="1040" y2="790" stroke="#444" stroke-width="1"/>
<text x="540" y="28" text-anchor="middle" font-size="11" fill="#ccc" font-weight="bold">Decathlon Running — 300 sqm (20m × 15m)</text>
</svg>